<svg width="1280" height="640" viewBox="0 0 1280 640" fill="none" xmlns="http://www.w3.org/2000/svg">
<rect width="1280" height="640" fill="#E5E5E5"/>
<rect width="1280" height="640" fill="#F7F176"/>
<path d="M499 170.3V200.7C496.2 202.3 492.867 203.567 489 204.5C485.133 205.367 481.2 205.8 477.2 205.8C471.467 205.8 466.3 204.9 461.7 203.1C457.167 201.3 453.267 198.833 450 195.7C446.733 192.5 444.233 188.733 442.5 184.4C440.767 180.067 439.9 175.333 439.9 170.2C439.9 164.533 440.9 159.367 442.9 154.7C444.967 149.967 447.733 145.9 451.2 142.5C454.733 139.1 458.767 136.467 463.3 134.6C467.9 132.667 472.767 131.7 477.9 131.7C481.367 131.7 485 132.167 488.8 133.1C492.6 133.967 495.9 135.233 498.7 136.9L493.4 145.8C492.4 145.2 491.233 144.667 489.9 144.2C488.633 143.733 487.3 143.333 485.9 143C484.5 142.667 483.1 142.433 481.7 142.3C480.3 142.1 478.967 142 477.7 142C474.167 142 470.767 142.7 467.5 144.1C464.233 145.5 461.367 147.433 458.9 149.9C456.433 152.367 454.467 155.267 453 158.6C451.533 161.933 450.8 165.533 450.8 169.4C450.8 172.933 451.433 176.267 452.7 179.4C454.033 182.533 455.867 185.3 458.2 187.7C460.533 190.1 463.333 192 466.6 193.4C469.867 194.8 473.467 195.5 477.4 195.5C478.933 195.5 480.733 195.367 482.8 195.1C484.933 194.767 486.967 194.233 488.9 193.5V179.7H474.8V170.3H499ZM508.283 147.2C508.283 145.6 508.849 144.267 509.983 143.2C511.183 142.133 512.449 141.6 513.783 141.6C515.116 141.6 516.349 142.133 517.483 143.2C518.616 144.267 519.183 145.6 519.183 147.2C519.183 148.8 518.616 150.133 517.483 151.2C516.349 152.2 515.116 152.7 513.783 152.7C512.449 152.7 511.183 152.2 509.983 151.2C508.849 150.133 508.283 148.8 508.283 147.2ZM517.883 205H509.383V163.2H517.883V205ZM533.491 144.8H541.991V163.3H553.191V170.9H541.991V205H533.491V170.9H525.991V163.3H533.491V144.8ZM561.306 205V132.5H572.206V163.3H608.506V132.5H619.506C619.506 133.367 619.506 135 619.506 137.4C619.506 139.733 619.506 142.533 619.506 145.8C619.506 149.067 619.506 152.7 619.506 156.7C619.506 160.633 619.473 164.667 619.406 168.8C619.406 172.867 619.406 176.9 619.406 180.9C619.406 184.833 619.406 188.433 619.406 191.7C619.406 194.967 619.406 197.8 619.406 200.2C619.406 202.533 619.406 204.133 619.406 205H608.506V173.7H572.206V205H561.306ZM672.404 205.9H665.204L664.204 194.3C662.671 197.7 660.504 200.5 657.704 202.7C654.971 204.9 651.471 206 647.204 206C642.937 206 639.537 204.867 637.004 202.6C634.537 200.267 633.237 197.233 633.104 193.5V163.2H641.604V189.7C641.737 191.767 642.471 193.533 643.804 195C645.204 196.467 647.337 197.3 650.204 197.5C652.204 197.5 654.037 197.167 655.704 196.5C657.371 195.767 658.804 194.8 660.004 193.6C661.204 192.4 662.137 190.967 662.804 189.3C663.471 187.633 663.804 185.8 663.804 183.8V163.2H672.404V205.9ZM729.083 184.2C729.083 187.333 728.549 190.233 727.483 192.9C726.416 195.567 724.916 197.867 722.983 199.8C721.049 201.733 718.716 203.267 715.983 204.4C713.316 205.467 710.383 206 707.183 206C705.516 206 703.916 205.8 702.383 205.4C700.916 205.067 699.549 204.6 698.283 204C697.016 203.333 695.916 202.633 694.983 201.9C694.049 201.1 693.349 200.3 692.883 199.5C692.883 199.833 692.883 200.2 692.883 200.6C692.949 200.933 692.983 201.267 692.983 201.6V205H684.383V127.3H692.983V169.3C693.516 168.5 694.216 167.7 695.083 166.9C696.016 166.033 697.083 165.267 698.283 164.6C699.549 163.867 700.949 163.267 702.483 162.8C704.016 162.333 705.716 162.1 707.583 162.1C710.783 162.1 713.683 162.633 716.283 163.7C718.949 164.7 721.216 166.167 723.083 168.1C725.016 169.967 726.483 172.267 727.483 175C728.549 177.733 729.083 180.8 729.083 184.2ZM719.783 184C719.783 182.067 719.483 180.3 718.883 178.7C718.283 177.033 717.416 175.6 716.283 174.4C715.149 173.2 713.783 172.267 712.183 171.6C710.583 170.867 708.783 170.5 706.783 170.5C704.783 170.5 702.916 170.867 701.183 171.6C699.516 172.267 698.083 173.2 696.883 174.4C695.683 175.6 694.716 177.033 693.983 178.7C693.316 180.3 692.983 182.067 692.983 184C692.983 185.933 693.316 187.733 693.983 189.4C694.716 191.067 695.683 192.5 696.883 193.7C698.083 194.9 699.516 195.867 701.183 196.6C702.916 197.267 704.783 197.6 706.783 197.6C708.783 197.6 710.583 197.267 712.183 196.6C713.783 195.867 715.149 194.9 716.283 193.7C717.416 192.433 718.283 191 718.883 189.4C719.483 187.733 719.783 185.933 719.783 184ZM809.234 205C808.9 204.267 808.434 203.2 807.834 201.8C807.234 200.4 806.534 198.8 805.734 197C805 195.133 804.167 193.133 803.234 191C802.367 188.8 801.467 186.533 800.534 184.2H774.934L766.334 205H755.534L787.834 129.1C788.234 130.033 788.934 131.733 789.934 134.2C791 136.667 792.234 139.633 793.634 143.1C795.1 146.5 796.7 150.3 798.434 154.5C800.234 158.633 802.034 162.833 803.834 167.1C805.7 171.367 807.5 175.567 809.234 179.7C811.034 183.833 812.667 187.633 814.134 191.1C815.6 194.567 816.834 197.533 817.834 200C818.9 202.4 819.634 204.067 820.034 205H809.234ZM778.734 175H796.834C795.9 172.8 795 170.7 794.134 168.7C793.334 166.633 792.567 164.767 791.834 163.1C791.167 161.367 790.567 159.867 790.034 158.6C789.5 157.333 789.1 156.333 788.834 155.6C788.767 155.467 788.6 155 788.334 154.2C788.134 153.4 787.967 152.667 787.834 152C787.7 152.667 787.5 153.4 787.234 154.2C786.967 155 786.8 155.467 786.734 155.6L778.734 175ZM853.105 194.7C854.039 195.833 854.905 196.933 855.705 198C856.572 199 857.439 200.067 858.305 201.2C856.439 202.667 854.339 203.833 852.005 204.7C849.672 205.567 847.139 206 844.405 206C841.339 206 838.439 205.433 835.705 204.3C833.039 203.1 830.705 201.5 828.705 199.5C826.705 197.5 825.105 195.167 823.905 192.5C822.772 189.833 822.205 187 822.205 184C822.205 181 822.772 178.167 823.905 175.5C825.105 172.833 826.705 170.533 828.705 168.6C830.705 166.6 833.039 165.033 835.705 163.9C838.439 162.7 841.339 162.1 844.405 162.1C847.205 162.1 849.772 162.533 852.105 163.4C854.505 164.267 856.672 165.433 858.605 166.9L853.105 173.4C851.972 172.467 850.672 171.767 849.205 171.3C847.739 170.767 846.139 170.5 844.405 170.5C842.405 170.5 840.572 170.867 838.905 171.6C837.239 172.267 835.772 173.2 834.505 174.4C833.305 175.6 832.372 177.033 831.705 178.7C831.039 180.3 830.705 182.067 830.705 184C830.705 185.933 831.039 187.733 831.705 189.4C832.372 191 833.305 192.433 834.505 193.7C835.772 194.9 837.239 195.867 838.905 196.6C840.572 197.267 842.405 197.6 844.405 197.6C846.139 197.6 847.739 197.367 849.205 196.9C850.672 196.367 851.972 195.633 853.105 194.7ZM870.307 144.8H878.807V163.3H890.007V170.9H878.807V205H870.307V170.9H862.807V163.3H870.307V144.8ZM895.978 147.2C895.978 145.6 896.545 144.267 897.678 143.2C898.878 142.133 900.145 141.6 901.478 141.6C902.811 141.6 904.045 142.133 905.178 143.2C906.311 144.267 906.878 145.6 906.878 147.2C906.878 148.8 906.311 150.133 905.178 151.2C904.045 152.2 902.811 152.7 901.478 152.7C900.145 152.7 898.878 152.2 897.678 151.2C896.545 150.133 895.978 148.8 895.978 147.2ZM905.578 205H897.078V163.2H905.578V205ZM914.686 184C914.686 181 915.253 178.167 916.386 175.5C917.586 172.833 919.186 170.533 921.186 168.6C923.186 166.6 925.519 165.033 928.186 163.9C930.919 162.7 933.853 162.1 936.986 162.1C940.119 162.1 943.019 162.7 945.686 163.9C948.419 165.033 950.753 166.6 952.686 168.6C954.686 170.533 956.219 172.833 957.286 175.5C958.419 178.167 958.986 181 958.986 184C958.986 187 958.419 189.833 957.286 192.5C956.219 195.167 954.686 197.5 952.686 199.5C950.753 201.5 948.419 203.1 945.686 204.3C943.019 205.433 940.086 206 936.886 206C933.819 206 930.919 205.467 928.186 204.4C925.519 203.333 923.186 201.833 921.186 199.9C919.186 197.967 917.586 195.667 916.386 193C915.253 190.267 914.686 187.267 914.686 184ZM923.186 184.1C923.186 185.967 923.519 187.733 924.186 189.4C924.919 191 925.886 192.433 927.086 193.7C928.353 194.9 929.786 195.867 931.386 196.6C933.053 197.267 934.819 197.6 936.686 197.6C938.553 197.6 940.319 197.267 941.986 196.6C943.653 195.867 945.086 194.9 946.286 193.7C947.553 192.433 948.553 191 949.286 189.4C950.019 187.733 950.386 185.967 950.386 184.1C950.386 182.233 950.019 180.467 949.286 178.8C948.553 177.133 947.553 175.7 946.286 174.5C945.086 173.233 943.653 172.267 941.986 171.6C940.319 170.867 938.553 170.5 936.686 170.5C934.819 170.5 933.053 170.867 931.386 171.6C929.786 172.267 928.353 173.233 927.086 174.5C925.886 175.7 924.919 177.133 924.186 178.8C923.519 180.467 923.186 182.233 923.186 184.1ZM968.074 163.2H975.574C975.708 165.267 975.808 167.167 975.874 168.9C976.008 170.567 976.141 172.233 976.274 173.9C977.808 170.3 979.974 167.433 982.774 165.3C985.641 163.167 989.141 162.1 993.274 162.1C997.474 162.1 1000.84 163.267 1003.37 165.6C1005.91 167.933 1007.24 170.933 1007.37 174.6V205H998.774V178.5C998.641 176.367 997.908 174.567 996.574 173.1C995.241 171.567 993.141 170.733 990.274 170.6C988.274 170.6 986.441 170.967 984.774 171.7C983.108 172.367 981.674 173.3 980.474 174.5C979.274 175.7 978.308 177.133 977.574 178.8C976.908 180.467 976.574 182.3 976.574 184.3V205H968.074V163.2ZM1042.25 166.9L1037.75 172.9C1037.69 172.833 1037.45 172.667 1037.05 172.4C1036.65 172.133 1036.12 171.867 1035.45 171.6C1034.85 171.333 1034.12 171.1 1033.25 170.9C1032.45 170.633 1031.62 170.5 1030.75 170.5C1029.62 170.5 1028.49 170.767 1027.35 171.3C1026.29 171.833 1025.75 172.833 1025.75 174.3C1025.75 175.567 1026.19 176.6 1027.05 177.4C1027.99 178.2 1029.12 178.933 1030.45 179.6C1031.79 180.2 1033.22 180.833 1034.75 181.5C1036.35 182.167 1037.82 183 1039.15 184C1040.49 184.933 1041.59 186.133 1042.45 187.6C1043.39 189 1043.85 190.8 1043.85 193C1043.85 196.733 1042.55 199.833 1039.95 202.3C1037.42 204.7 1033.92 205.9 1029.45 205.9C1026.85 205.9 1024.29 205.467 1021.75 204.6C1019.29 203.667 1017.29 202.333 1015.75 200.6C1016.22 200.133 1016.72 199.533 1017.25 198.8C1017.85 198.067 1018.42 197.367 1018.95 196.7C1019.55 196.033 1020.02 195.5 1020.35 195.1C1020.75 194.633 1020.99 194.4 1021.05 194.4C1021.05 194.467 1021.29 194.667 1021.75 195C1022.29 195.333 1022.95 195.7 1023.75 196.1C1024.55 196.433 1025.45 196.767 1026.45 197.1C1027.45 197.367 1028.45 197.5 1029.45 197.5C1031.05 197.5 1032.42 197.1 1033.55 196.3C1034.69 195.5 1035.25 194.433 1035.25 193.1C1035.25 191.9 1034.79 190.967 1033.85 190.3C1032.99 189.567 1031.89 188.9 1030.55 188.3C1029.22 187.7 1027.75 187.1 1026.15 186.5C1024.55 185.833 1023.09 185 1021.75 184C1020.42 183 1019.29 181.767 1018.35 180.3C1017.49 178.767 1017.05 176.8 1017.05 174.4C1017.05 172.133 1017.45 170.233 1018.25 168.7C1019.12 167.167 1020.19 165.933 1021.45 165C1022.79 164 1024.25 163.3 1025.85 162.9C1027.45 162.433 1028.99 162.2 1030.45 162.2C1032.39 162.2 1034.45 162.6 1036.65 163.4C1038.85 164.2 1040.72 165.367 1042.25 166.9ZM438.4 321.5V313.1H445.5V303.4C445.5 294.667 447.533 288.2 451.6 284C455.733 279.733 461.567 277.5 469.1 277.3V285.5C463.9 285.767 460.1 287.433 457.7 290.5C455.3 293.567 454.1 297.933 454.1 303.6V313.1H467.3V321.5H454.1V355H445.5V321.5H438.4ZM470.448 334C470.448 331 471.014 328.167 472.148 325.5C473.348 322.833 474.948 320.533 476.948 318.6C478.948 316.6 481.281 315.033 483.948 313.9C486.681 312.7 489.614 312.1 492.748 312.1C495.881 312.1 498.781 312.7 501.448 313.9C504.181 315.033 506.514 316.6 508.448 318.6C510.448 320.533 511.981 322.833 513.048 325.5C514.181 328.167 514.748 331 514.748 334C514.748 337 514.181 339.833 513.048 342.5C511.981 345.167 510.448 347.5 508.448 349.5C506.514 351.5 504.181 353.1 501.448 354.3C498.781 355.433 495.848 356 492.648 356C489.581 356 486.681 355.467 483.948 354.4C481.281 353.333 478.948 351.833 476.948 349.9C474.948 347.967 473.348 345.667 472.148 343C471.014 340.267 470.448 337.267 470.448 334ZM478.948 334.1C478.948 335.967 479.281 337.733 479.948 339.4C480.681 341 481.648 342.433 482.848 343.7C484.114 344.9 485.548 345.867 487.148 346.6C488.814 347.267 490.581 347.6 492.448 347.6C494.314 347.6 496.081 347.267 497.748 346.6C499.414 345.867 500.848 344.9 502.048 343.7C503.314 342.433 504.314 341 505.048 339.4C505.781 337.733 506.148 335.967 506.148 334.1C506.148 332.233 505.781 330.467 505.048 328.8C504.314 327.133 503.314 325.7 502.048 324.5C500.848 323.233 499.414 322.267 497.748 321.6C496.081 320.867 494.314 320.5 492.448 320.5C490.581 320.5 488.814 320.867 487.148 321.6C485.548 322.267 484.114 323.233 482.848 324.5C481.648 325.7 480.681 327.133 479.948 328.8C479.281 330.467 478.948 332.233 478.948 334.1ZM546.836 323.1C544.969 323.1 543.169 323.367 541.436 323.9C539.703 324.367 538.136 325.1 536.736 326.1C535.403 327.1 534.336 328.367 533.536 329.9C532.736 331.367 532.336 333.067 532.336 335V355H523.836V313.2H531.336C531.469 315.267 531.569 317.167 531.636 318.9C531.769 320.567 531.903 322.233 532.036 323.9C532.903 322.1 534.036 320.467 535.436 319C536.836 317.533 538.336 316.3 539.936 315.3C541.536 314.3 543.103 313.533 544.636 313C546.169 312.4 547.536 312.1 548.736 312.1L546.836 323.1ZM486.7 484.2C486.7 487.333 486.167 490.233 485.1 492.9C484.033 495.567 482.533 497.867 480.6 499.8C478.667 501.733 476.333 503.267 473.6 504.4C470.933 505.467 468 506 464.8 506C463.133 506 461.533 505.8 460 505.4C458.533 505.067 457.167 504.6 455.9 504C454.633 503.333 453.533 502.633 452.6 501.9C451.667 501.1 450.967 500.3 450.5 499.5C450.5 499.833 450.5 500.2 450.5 500.6C450.567 500.933 450.6 501.267 450.6 501.6V505H442V427.3H450.6V469.3C451.133 468.5 451.833 467.7 452.7 466.9C453.633 466.033 454.7 465.267 455.9 464.6C457.167 463.867 458.567 463.267 460.1 462.8C461.633 462.333 463.333 462.1 465.2 462.1C468.4 462.1 471.3 462.633 473.9 463.7C476.567 464.7 478.833 466.167 480.7 468.1C482.633 469.967 484.1 472.267 485.1 475C486.167 477.733 486.7 480.8 486.7 484.2ZM477.4 484C477.4 482.067 477.1 480.3 476.5 478.7C475.9 477.033 475.033 475.6 473.9 474.4C472.767 473.2 471.4 472.267 469.8 471.6C468.2 470.867 466.4 470.5 464.4 470.5C462.4 470.5 460.533 470.867 458.8 471.6C457.133 472.267 455.7 473.2 454.5 474.4C453.3 475.6 452.333 477.033 451.6 478.7C450.933 480.3 450.6 482.067 450.6 484C450.6 485.933 450.933 487.733 451.6 489.4C452.333 491.067 453.3 492.5 454.5 493.7C455.7 494.9 457.133 495.867 458.8 496.6C460.533 497.267 462.4 497.6 464.4 497.6C466.4 497.6 468.2 497.267 469.8 496.6C471.4 495.867 472.767 494.9 473.9 493.7C475.033 492.433 475.9 491 476.5 489.4C477.1 487.733 477.4 485.933 477.4 484ZM519.004 473.1C517.137 473.1 515.337 473.367 513.604 473.9C511.871 474.367 510.304 475.1 508.904 476.1C507.571 477.1 506.504 478.367 505.704 479.9C504.904 481.367 504.504 483.067 504.504 485V505H496.004V463.2H503.504C503.637 465.267 503.737 467.167 503.804 468.9C503.937 470.567 504.071 472.233 504.204 473.9C505.071 472.1 506.204 470.467 507.604 469C509.004 467.533 510.504 466.3 512.104 465.3C513.704 464.3 515.271 463.533 516.804 463C518.337 462.4 519.704 462.1 520.904 462.1L519.004 473.1ZM523.377 484C523.377 481 523.944 478.167 525.077 475.5C526.277 472.833 527.877 470.533 529.877 468.6C531.877 466.6 534.211 465.033 536.877 463.9C539.611 462.7 542.544 462.1 545.677 462.1C548.811 462.1 551.711 462.7 554.377 463.9C557.111 465.033 559.444 466.6 561.377 468.6C563.377 470.533 564.911 472.833 565.977 475.5C567.111 478.167 567.677 481 567.677 484C567.677 487 567.111 489.833 565.977 492.5C564.911 495.167 563.377 497.5 561.377 499.5C559.444 501.5 557.111 503.1 554.377 504.3C551.711 505.433 548.777 506 545.577 506C542.511 506 539.611 505.467 536.877 504.4C534.211 503.333 531.877 501.833 529.877 499.9C527.877 497.967 526.277 495.667 525.077 493C523.944 490.267 523.377 487.267 523.377 484ZM531.877 484.1C531.877 485.967 532.211 487.733 532.877 489.4C533.611 491 534.577 492.433 535.777 493.7C537.044 494.9 538.477 495.867 540.077 496.6C541.744 497.267 543.511 497.6 545.377 497.6C547.244 497.6 549.011 497.267 550.677 496.6C552.344 495.867 553.777 494.9 554.977 493.7C556.244 492.433 557.244 491 557.977 489.4C558.711 487.733 559.077 485.967 559.077 484.1C559.077 482.233 558.711 480.467 557.977 478.8C557.244 477.133 556.244 475.7 554.977 474.5C553.777 473.233 552.344 472.267 550.677 471.6C549.011 470.867 547.244 470.5 545.377 470.5C543.511 470.5 541.744 470.867 540.077 471.6C538.477 472.267 537.044 473.233 535.777 474.5C534.577 475.7 533.611 477.133 532.877 478.8C532.211 480.467 531.877 482.233 531.877 484.1ZM606.466 462.1L611.566 467.2C609.032 469.533 606.599 471.8 604.266 474C601.999 476.2 599.599 478.5 597.066 480.9C600.066 484.9 602.999 488.933 605.866 493C608.732 497 611.632 501 614.566 505H604.766C602.499 501.867 600.199 498.8 597.866 495.8C595.599 492.733 593.332 489.633 591.066 486.5L585.266 491.8V505H576.766V427.3H585.266V481.8C588.999 478.4 592.566 475.133 595.966 472C599.366 468.8 602.866 465.5 606.466 462.1ZM654.646 500.1C652.646 501.9 650.213 503.333 647.346 504.4C644.479 505.467 641.546 506 638.546 506C635.479 506 632.579 505.433 629.846 504.3C627.179 503.1 624.846 501.533 622.846 499.6C620.846 497.6 619.246 495.267 618.046 492.6C616.913 489.933 616.346 487.1 616.346 484.1C616.346 481.1 616.913 478.267 618.046 475.6C619.246 472.933 620.846 470.6 622.846 468.6C624.846 466.6 627.146 465.033 629.746 463.9C632.413 462.7 635.246 462.1 638.246 462.1C642.979 462.1 647.079 463.533 650.546 466.4C654.079 469.2 656.613 472.9 658.146 477.5C656.079 478.233 653.713 479.133 651.046 480.2C648.379 481.267 645.613 482.4 642.746 483.6C639.879 484.733 637.013 485.867 634.146 487C631.279 488.133 628.613 489.167 626.146 490.1C627.279 492.367 628.913 494.2 631.046 495.6C633.246 496.933 635.679 497.6 638.346 497.6C640.146 497.6 641.946 497.267 643.746 496.6C645.613 495.933 647.113 495.033 648.246 493.9L654.646 500.1ZM647.446 475.5C646.646 473.833 645.379 472.6 643.646 471.8C641.913 470.933 640.146 470.5 638.346 470.5C636.413 470.5 634.613 470.867 632.946 471.6C631.346 472.333 629.946 473.333 628.746 474.6C627.546 475.8 626.579 477.2 625.846 478.8C625.179 480.4 624.846 482.033 624.846 483.7C624.846 484.033 624.846 484.267 624.846 484.4C624.913 484.533 624.946 484.633 624.946 484.7C626.679 484.033 628.546 483.3 630.546 482.5C632.613 481.633 634.646 480.8 636.646 480C638.646 479.133 640.579 478.333 642.446 477.6C644.313 476.8 645.979 476.1 647.446 475.5ZM665.535 463.2H673.035C673.168 465.267 673.268 467.167 673.335 468.9C673.468 470.567 673.602 472.233 673.735 473.9C675.268 470.3 677.435 467.433 680.235 465.3C683.102 463.167 686.602 462.1 690.735 462.1C694.935 462.1 698.302 463.267 700.835 465.6C703.368 467.933 704.702 470.933 704.835 474.6V505H696.235V478.5C696.102 476.367 695.368 474.567 694.035 473.1C692.702 471.567 690.602 470.733 687.735 470.6C685.735 470.6 683.902 470.967 682.235 471.7C680.568 472.367 679.135 473.3 677.935 474.5C676.735 475.7 675.768 477.133 675.035 478.8C674.368 480.467 674.035 482.3 674.035 484.3V505H665.535V463.2ZM715.914 487.7V478.8H734.514V487.7H715.914ZM754.604 505H746.104V427.3H754.604V505ZM765.607 447.2C765.607 445.6 766.174 444.267 767.307 443.2C768.507 442.133 769.774 441.6 771.107 441.6C772.44 441.6 773.674 442.133 774.807 443.2C775.94 444.267 776.507 445.6 776.507 447.2C776.507 448.8 775.94 450.133 774.807 451.2C773.674 452.2 772.44 452.7 771.107 452.7C769.774 452.7 768.507 452.2 767.307 451.2C766.174 450.133 765.607 448.8 765.607 447.2ZM775.207 505H766.707V463.2H775.207V505ZM787.215 463.2H794.715C794.848 465.267 794.948 467.167 795.015 468.9C795.148 470.567 795.282 472.233 795.415 473.9C796.948 470.3 799.115 467.433 801.915 465.3C804.782 463.167 808.282 462.1 812.415 462.1C816.615 462.1 819.982 463.267 822.515 465.6C825.048 467.933 826.382 470.933 826.515 474.6V505H817.915V478.5C817.782 476.367 817.048 474.567 815.715 473.1C814.382 471.567 812.282 470.733 809.415 470.6C807.415 470.6 805.582 470.967 803.915 471.7C802.248 472.367 800.815 473.3 799.615 474.5C798.415 475.7 797.448 477.133 796.715 478.8C796.048 480.467 795.715 482.3 795.715 484.3V505H787.215V463.2ZM867.794 462.1L872.894 467.2C870.36 469.533 867.927 471.8 865.594 474C863.327 476.2 860.927 478.5 858.394 480.9C861.394 484.9 864.327 488.933 867.194 493C870.06 497 872.96 501 875.894 505H866.094C863.827 501.867 861.527 498.8 859.194 495.8C856.927 492.733 854.66 489.633 852.394 486.5L846.594 491.8V505H838.094V427.3H846.594V481.8C850.327 478.4 853.894 475.133 857.294 472C860.694 468.8 864.194 465.5 867.794 462.1ZM880.855 487.7V478.8H899.455V487.7H880.855ZM938.945 494.7C939.879 495.833 940.745 496.933 941.545 498C942.412 499 943.279 500.067 944.145 501.2C942.279 502.667 940.179 503.833 937.845 504.7C935.512 505.567 932.979 506 930.245 506C927.179 506 924.279 505.433 921.545 504.3C918.879 503.1 916.545 501.5 914.545 499.5C912.545 497.5 910.945 495.167 909.745 492.5C908.612 489.833 908.045 487 908.045 484C908.045 481 908.612 478.167 909.745 475.5C910.945 472.833 912.545 470.533 914.545 468.6C916.545 466.6 918.879 465.033 921.545 463.9C924.279 462.7 927.179 462.1 930.245 462.1C933.045 462.1 935.612 462.533 937.945 463.4C940.345 464.267 942.512 465.433 944.445 466.9L938.945 473.4C937.812 472.467 936.512 471.767 935.045 471.3C933.579 470.767 931.979 470.5 930.245 470.5C928.245 470.5 926.412 470.867 924.745 471.6C923.079 472.267 921.612 473.2 920.345 474.4C919.145 475.6 918.212 477.033 917.545 478.7C916.879 480.3 916.545 482.067 916.545 484C916.545 485.933 916.879 487.733 917.545 489.4C918.212 491 919.145 492.433 920.345 493.7C921.612 494.9 923.079 495.867 924.745 496.6C926.412 497.267 928.245 497.6 930.245 497.6C931.979 497.6 933.579 497.367 935.045 496.9C936.512 496.367 937.812 495.633 938.945 494.7ZM952.547 427.3H961.047V473.3C962.514 469.967 964.58 467.3 967.247 465.3C969.914 463.233 973.347 462.167 977.547 462.1C981.814 462.033 985.214 463.167 987.747 465.5C990.347 467.833 991.714 470.867 991.847 474.6V505H983.247V478.5C983.114 476.367 982.38 474.567 981.047 473.1C979.714 471.567 977.614 470.733 974.747 470.6C972.747 470.6 970.914 470.967 969.247 471.7C967.58 472.367 966.147 473.3 964.947 474.5C963.747 475.7 962.78 477.133 962.047 478.8C961.38 480.467 961.047 482.3 961.047 484.3V505H952.547V427.3ZM1038.83 500.1C1036.83 501.9 1034.39 503.333 1031.53 504.4C1028.66 505.467 1025.73 506 1022.73 506C1019.66 506 1016.76 505.433 1014.03 504.3C1011.36 503.1 1009.03 501.533 1007.03 499.6C1005.03 497.6 1003.43 495.267 1002.23 492.6C1001.09 489.933 1000.53 487.1 1000.53 484.1C1000.53 481.1 1001.09 478.267 1002.23 475.6C1003.43 472.933 1005.03 470.6 1007.03 468.6C1009.03 466.6 1011.33 465.033 1013.93 463.9C1016.59 462.7 1019.43 462.1 1022.43 462.1C1027.16 462.1 1031.26 463.533 1034.73 466.4C1038.26 469.2 1040.79 472.9 1042.33 477.5C1040.26 478.233 1037.89 479.133 1035.23 480.2C1032.56 481.267 1029.79 482.4 1026.93 483.6C1024.06 484.733 1021.19 485.867 1018.33 487C1015.46 488.133 1012.79 489.167 1010.33 490.1C1011.46 492.367 1013.09 494.2 1015.23 495.6C1017.43 496.933 1019.86 497.6 1022.53 497.6C1024.33 497.6 1026.13 497.267 1027.93 496.6C1029.79 495.933 1031.29 495.033 1032.43 493.9L1038.83 500.1ZM1031.63 475.5C1030.83 473.833 1029.56 472.6 1027.83 471.8C1026.09 470.933 1024.33 470.5 1022.53 470.5C1020.59 470.5 1018.79 470.867 1017.13 471.6C1015.53 472.333 1014.13 473.333 1012.93 474.6C1011.73 475.8 1010.76 477.2 1010.03 478.8C1009.36 480.4 1009.03 482.033 1009.03 483.7C1009.03 484.033 1009.03 484.267 1009.03 484.4C1009.09 484.533 1009.13 484.633 1009.13 484.7C1010.86 484.033 1012.73 483.3 1014.73 482.5C1016.79 481.633 1018.83 480.8 1020.83 480C1022.83 479.133 1024.76 478.333 1026.63 477.6C1028.49 476.8 1030.16 476.1 1031.63 475.5ZM1077.71 494.7C1078.65 495.833 1079.51 496.933 1080.31 498C1081.18 499 1082.05 500.067 1082.91 501.2C1081.05 502.667 1078.95 503.833 1076.61 504.7C1074.28 505.567 1071.75 506 1069.01 506C1065.95 506 1063.05 505.433 1060.31 504.3C1057.65 503.1 1055.31 501.5 1053.31 499.5C1051.31 497.5 1049.71 495.167 1048.51 492.5C1047.38 489.833 1046.81 487 1046.81 484C1046.81 481 1047.38 478.167 1048.51 475.5C1049.71 472.833 1051.31 470.533 1053.31 468.6C1055.31 466.6 1057.65 465.033 1060.31 463.9C1063.05 462.7 1065.95 462.1 1069.01 462.1C1071.81 462.1 1074.38 462.533 1076.71 463.4C1079.11 464.267 1081.28 465.433 1083.21 466.9L1077.71 473.4C1076.58 472.467 1075.28 471.767 1073.81 471.3C1072.35 470.767 1070.75 470.5 1069.01 470.5C1067.01 470.5 1065.18 470.867 1063.51 471.6C1061.85 472.267 1060.38 473.2 1059.11 474.4C1057.91 475.6 1056.98 477.033 1056.31 478.7C1055.65 480.3 1055.31 482.067 1055.31 484C1055.31 485.933 1055.65 487.733 1056.31 489.4C1056.98 491 1057.91 492.433 1059.11 493.7C1060.38 494.9 1061.85 495.867 1063.51 496.6C1065.18 497.267 1067.01 497.6 1069.01 497.6C1070.75 497.6 1072.35 497.367 1073.81 496.9C1075.28 496.367 1076.58 495.633 1077.71 494.7ZM1121.02 462.1L1126.12 467.2C1123.58 469.533 1121.15 471.8 1118.82 474C1116.55 476.2 1114.15 478.5 1111.62 480.9C1114.62 484.9 1117.55 488.933 1120.42 493C1123.28 497 1126.18 501 1129.12 505H1119.32C1117.05 501.867 1114.75 498.8 1112.42 495.8C1110.15 492.733 1107.88 489.633 1105.62 486.5L1099.82 491.8V505H1091.32V427.3H1099.82V481.8C1103.55 478.4 1107.12 475.133 1110.52 472C1113.92 468.8 1117.42 465.5 1121.02 462.1ZM1169.2 500.1C1167.2 501.9 1164.76 503.333 1161.9 504.4C1159.03 505.467 1156.1 506 1153.1 506C1150.03 506 1147.13 505.433 1144.4 504.3C1141.73 503.1 1139.4 501.533 1137.4 499.6C1135.4 497.6 1133.8 495.267 1132.6 492.6C1131.46 489.933 1130.9 487.1 1130.9 484.1C1130.9 481.1 1131.46 478.267 1132.6 475.6C1133.8 472.933 1135.4 470.6 1137.4 468.6C1139.4 466.6 1141.7 465.033 1144.3 463.9C1146.96 462.7 1149.8 462.1 1152.8 462.1C1157.53 462.1 1161.63 463.533 1165.1 466.4C1168.63 469.2 1171.16 472.9 1172.7 477.5C1170.63 478.233 1168.26 479.133 1165.6 480.2C1162.93 481.267 1160.16 482.4 1157.3 483.6C1154.43 484.733 1151.56 485.867 1148.7 487C1145.83 488.133 1143.16 489.167 1140.7 490.1C1141.83 492.367 1143.46 494.2 1145.6 495.6C1147.8 496.933 1150.23 497.6 1152.9 497.6C1154.7 497.6 1156.5 497.267 1158.3 496.6C1160.16 495.933 1161.66 495.033 1162.8 493.9L1169.2 500.1ZM1162 475.5C1161.2 473.833 1159.93 472.6 1158.2 471.8C1156.46 470.933 1154.7 470.5 1152.9 470.5C1150.96 470.5 1149.16 470.867 1147.5 471.6C1145.9 472.333 1144.5 473.333 1143.3 474.6C1142.1 475.8 1141.13 477.2 1140.4 478.8C1139.73 480.4 1139.4 482.033 1139.4 483.7C1139.4 484.033 1139.4 484.267 1139.4 484.4C1139.46 484.533 1139.5 484.633 1139.5 484.7C1141.23 484.033 1143.1 483.3 1145.1 482.5C1147.16 481.633 1149.2 480.8 1151.2 480C1153.2 479.133 1155.13 478.333 1157 477.6C1158.86 476.8 1160.53 476.1 1162 475.5ZM1203.09 473.1C1201.22 473.1 1199.42 473.367 1197.69 473.9C1195.95 474.367 1194.39 475.1 1192.99 476.1C1191.65 477.1 1190.59 478.367 1189.79 479.9C1188.99 481.367 1188.59 483.067 1188.59 485V505H1180.09V463.2H1187.59C1187.72 465.267 1187.82 467.167 1187.89 468.9C1188.02 470.567 1188.15 472.233 1188.29 473.9C1189.15 472.1 1190.29 470.467 1191.69 469C1193.09 467.533 1194.59 466.3 1196.19 465.3C1197.79 464.3 1199.35 463.533 1200.89 463C1202.42 462.4 1203.79 462.1 1204.99 462.1L1203.09 473.1Z" fill="black"/>
<path d="M152.666 233.021H170.42V246.293H152.666V276H136.318V246.293H78.0469V236.713L135.352 148.031H152.666V233.021ZM96.5039 233.021H136.318V170.268L134.385 173.783L96.5039 233.021ZM265.342 221.42C265.342 240.463 262.09 254.613 255.586 263.871C249.082 273.129 238.916 277.758 225.088 277.758C211.436 277.758 201.328 273.246 194.766 264.223C188.203 255.141 184.805 241.605 184.57 223.617V201.908C184.57 183.1 187.822 169.125 194.326 159.984C200.83 150.844 211.025 146.273 224.912 146.273C238.682 146.273 248.818 150.697 255.322 159.545C261.826 168.334 265.166 181.928 265.342 200.326V221.42ZM249.082 199.184C249.082 185.414 247.148 175.395 243.281 169.125C239.414 162.797 233.291 159.633 224.912 159.633C216.592 159.633 210.527 162.768 206.719 169.037C202.91 175.307 200.947 184.945 200.83 197.953V223.969C200.83 237.797 202.822 248.021 206.807 254.643C210.85 261.205 216.943 264.486 225.088 264.486C233.115 264.486 239.062 261.381 242.93 255.17C246.855 248.959 248.906 239.174 249.082 225.814V199.184ZM354.814 233.021H372.568V246.293H354.814V276H338.467V246.293H280.195V236.713L337.5 148.031H354.814V233.021ZM298.652 233.021H338.467V170.268L336.533 173.783L298.652 233.021Z" fill="#F74209"/>
<path d="M167.871 487H84.0234V475.311L128.32 426.092C134.883 418.65 139.395 412.615 141.855 407.986C144.375 403.299 145.635 398.465 145.635 393.484C145.635 386.805 143.613 381.326 139.57 377.049C135.527 372.771 130.137 370.633 123.398 370.633C115.312 370.633 109.014 372.947 104.502 377.576C100.049 382.146 97.8223 388.533 97.8223 396.736H81.5625C81.5625 384.959 85.3418 375.438 92.9004 368.172C100.518 360.906 110.684 357.273 123.398 357.273C135.293 357.273 144.697 360.408 151.611 366.678C158.525 372.889 161.982 381.18 161.982 391.551C161.982 404.148 153.955 419.148 137.9 436.551L103.623 473.729H167.871V487ZM265.342 432.42C265.342 451.463 262.09 465.613 255.586 474.871C249.082 484.129 238.916 488.758 225.088 488.758C211.436 488.758 201.328 484.246 194.766 475.223C188.203 466.141 184.805 452.605 184.57 434.617V412.908C184.57 394.1 187.822 380.125 194.326 370.984C200.83 361.844 211.025 357.273 224.912 357.273C238.682 357.273 248.818 361.697 255.322 370.545C261.826 379.334 265.166 392.928 265.342 411.326V432.42ZM249.082 410.184C249.082 396.414 247.148 386.395 243.281 380.125C239.414 373.797 233.291 370.633 224.912 370.633C216.592 370.633 210.527 373.768 206.719 380.037C202.91 386.307 200.947 395.945 200.83 408.953V434.969C200.83 448.797 202.822 459.021 206.807 465.643C210.85 472.205 216.943 475.486 225.088 475.486C233.115 475.486 239.062 472.381 242.93 466.17C246.855 459.959 248.906 450.174 249.082 436.814V410.184ZM366.416 432.42C366.416 451.463 363.164 465.613 356.66 474.871C350.156 484.129 339.99 488.758 326.162 488.758C312.51 488.758 302.402 484.246 295.84 475.223C289.277 466.141 285.879 452.605 285.645 434.617V412.908C285.645 394.1 288.896 380.125 295.4 370.984C301.904 361.844 312.1 357.273 325.986 357.273C339.756 357.273 349.893 361.697 356.396 370.545C362.9 379.334 366.24 392.928 366.416 411.326V432.42ZM350.156 410.184C350.156 396.414 348.223 386.395 344.355 380.125C340.488 373.797 334.365 370.633 325.986 370.633C317.666 370.633 311.602 373.768 307.793 380.037C303.984 386.307 302.021 395.945 301.904 408.953V434.969C301.904 448.797 303.896 459.021 307.881 465.643C311.924 472.205 318.018 475.486 326.162 475.486C334.189 475.486 340.137 472.381 344.004 466.17C347.93 459.959 349.98 450.174 350.156 436.814V410.184Z" fill="#1DC761"/>
</svg>
